# xmcd
#
# Track frame offsets:
#	151
#	23056
#	48854
#	88713
#	102610
#	118499
#	138412
#	153366
#	171554
#	187548
#	207250
#
# Disc length: 3025 seconds
#
# Revision: 0
# Processed by: cddbd v1.4PL0 Copyright (c) Steve Scherf et al.
# Submitted via: dBpowerAMP V4.0
#
DISCID=940bcf0b
DTITLE=Anne Di Price - Wild Women
DYEAR=1900
DGENRE=Blues
TTITLE0=Wild Women Don't Get the Blues
TTITLE1=The Soul of a Man
TTITLE2=Wrong Keyhole
TTITLE3=Tonight's the Night
TTITLE4=Fisherman's Blues
TTITLE5=I Didn't Like It the First Time
TTITLE6=Fishin' in the Sea of Matrimony
TTITLE7=Knocking Myself Out
TTITLE8=Will My Man Be Home Tonight?
TTITLE9=Blues Have Been Good to Me
TTITLE10=Pigmeat
EXTD=
EXTT0=
EXTT1=
EXTT2=
EXTT3=
EXTT4=
EXTT5=
EXTT6=
EXTT7=
EXTT8=
EXTT9=
EXTT10=
PLAYORDER=
